STARTFONT 2.3
FONT -FontForge-Satisfy-Book-R-Normal--16-160-72-72-P-69-ISO10646-1
SIZE 16 72 72  2
FONTBOUNDINGBOX 19 23 -4 -8
COMMENT "Generated by fontforge, http://fontforge.sourceforge.net"
COMMENT "Copyright (c) 2011 by Font Diner, Inc. All rights reserved."
STARTPROPERTIES 40
FOUNDRY "FontForge"
FAMILY_NAME "Satisfy"
WEIGHT_NAME "Book"
SLANT "R"
SETWIDTH_NAME "Normal"
ADD_STYLE_NAME ""
PIXEL_SIZE 16
POINT_SIZE 160
RESOLUTION_X 72
RESOLUTION_Y 72
SPACING "P"
AVERAGE_WIDTH 69
CHARSET_REGISTRY "ISO10646"
CHARSET_ENCODING "1"
FONTNAME_REGISTRY ""
CHARSET_COLLECTIONS "ISO10646-1"
BITS_PER_PIXEL 2
FONT_NAME "Satisfy-Regular"
FACE_NAME "Satisfy Regular"
COPYRIGHT "Copyright (c) 2011 by Font Diner, Inc. All rights reserved."
FONT_VERSION "1.001"
FONT_ASCENT 13
FONT_DESCENT 3
UNDERLINE_POSITION -2
UNDERLINE_THICKNESS 1
X_HEIGHT 6
CAP_HEIGHT 11
RAW_ASCENT 799
RAW_DESCENT 200
NORM_SPACE 4
RELATIVE_WEIGHT 40
RELATIVE_SETWIDTH 50
SUPERSCRIPT_X 0
SUPERSCRIPT_Y 7
SUPERSCRIPT_SIZE 10
SUBSCRIPT_X 0
SUBSCRIPT_Y 2
SUBSCRIPT_SIZE 10
AVG_LOWERCASE_WIDTH 65
AVG_UPPERCASE_WIDTH 90
ENDPROPERTIES
CHARS 227
STARTCHAR space
ENCODING 32
SWIDTH 280 0
DWIDTH 4 0
BBX 1 1 0 0
BITMAP
00
ENDCHAR
STARTCHAR exclam
ENCODING 33
SWIDTH 249 0
DWIDTH 4 0
BBX 5 13 -1 -1
BITMAP
0180
02C0
0280
0340
0740
0B00
0A00
0D00
1C00
1800
0000
7800
1000
ENDCHAR
STARTCHAR quotedbl
ENCODING 34
SWIDTH 249 0
DWIDTH 4 0
BBX 5 5 0 7
BITMAP
0880
29C0
2680
3340
6300
ENDCHAR
STARTCHAR numbersign
ENCODING 35
SWIDTH 417 0
DWIDTH 7 0
BBX 8 8 -1 2
BITMAP
00C9
018C
1BFE
1724
0674
7EF9
0C90
18C0
ENDCHAR
STARTCHAR dollar
ENCODING 36
SWIDTH 292 0
DWIDTH 5 0
BBX 7 12 -1 0
BITMAP
0040
01D0
0670
0C34
0C20
0900
0700
0340
5180
6280
2A00
1800
ENDCHAR
STARTCHAR percent
ENCODING 37
SWIDTH 574 0
DWIDTH 9 0
BBX 9 13 0 -1
BITMAP
050080
2A8240
318600
619C00
636400
2DA000
01C400
036A40
0A7240
1C9240
349300
A07D00
400000
ENDCHAR
STARTCHAR ampersand
ENCODING 38
SWIDTH 460 0
DWIDTH 7 0
BBX 8 13 -1 -1
BITMAP
0029
0096
01CC
01E4
01E0
03C0
0FC0
29C0
71D0
A0D2
A0F8
7AF4
1564
ENDCHAR
STARTCHAR quotesingle
ENCODING 39
SWIDTH 113 0
DWIDTH 2 0
BBX 3 5 0 7
BITMAP
08
28
24
30
60
ENDCHAR
STARTCHAR parenleft
ENCODING 40
SWIDTH 234 0
DWIDTH 4 0
BBX 5 15 0 -2
BITMAP
0080
0240
0600
0D00
1800
2400
3400
7000
6000
A000
A000
9000
A000
6000
1000
ENDCHAR
STARTCHAR parenright
ENCODING 41
SWIDTH 204 0
DWIDTH 3 0
BBX 5 15 -2 -2
BITMAP
0140
0180
00C0
00C0
00C0
01C0
0180
0280
0340
0700
0A00
0D00
1800
7000
4000
ENDCHAR
STARTCHAR asterisk
ENCODING 42
SWIDTH 327 0
DWIDTH 5 0
BBX 5 6 1 6
BITMAP
0500
4D00
AEC0
2D40
A700
1200
ENDCHAR
STARTCHAR plus
ENCODING 43
SWIDTH 350 0
DWIDTH 6 0
BBX 6 6 0 3
BITMAP
0100
0600
5A40
EE90
0C00
1800
ENDCHAR
STARTCHAR comma
ENCODING 44
SWIDTH 200 0
DWIDTH 3 0
BBX 3 3 -1 -2
BITMAP
74
34
50
ENDCHAR
STARTCHAR hyphen
ENCODING 45
SWIDTH 353 0
DWIDTH 6 0
BBX 6 2 0 4
BITMAP
6A90
A940
ENDCHAR
STARTCHAR period
ENCODING 46
SWIDTH 213 0
DWIDTH 3 0
BBX 3 2 -1 -1
BITMAP
78
10
ENDCHAR
STARTCHAR slash
ENCODING 47
SWIDTH 262 0
DWIDTH 4 0
BBX 8 12 -2 0
BITMAP
0002
000A
001C
0034
0060
00C0
0280
0300
0A00
1C00
2800
7000
ENDCHAR
STARTCHAR zero
ENCODING 48
SWIDTH 489 0
DWIDTH 8 0
BBX 7 13 0 -1
BITMAP
00A0
0368
0A0C
1C0C
280C
341C
701C
7028
7034
7070
70D0
2B40
0400
ENDCHAR
STARTCHAR one
ENCODING 49
SWIDTH 272 0
DWIDTH 4 0
BBX 4 12 0 0
BITMAP
02
0F
0A
09
0D
1C
18
28
34
70
B0
B0
ENDCHAR
STARTCHAR two
ENCODING 50
SWIDTH 448 0
DWIDTH 7 0
BBX 8 13 -1 -1
BITMAP
0069
028A
070B
0A0A
000D
0028
0070
01D0
0740
1C00
7550
7FF4
1000
ENDCHAR
STARTCHAR three
ENCODING 51
SWIDTH 462 0
DWIDTH 7 0
BBX 7 13 0 -1
BITMAP
02A0
1E2C
281C
2C2C
0074
01D0
0B90
0070
0070
5070
E0D0
BB80
1500
ENDCHAR
STARTCHAR four
ENCODING 52
SWIDTH 452 0
DWIDTH 7 0
BBX 7 13 0 -1
BITMAP
0014
00B8
02A4
0730
1D30
7460
EAF4
65E4
01D0
01C0
02C0
02C0
0100
ENDCHAR
STARTCHAR five
ENCODING 53
SWIDTH 444 0
DWIDTH 7 0
BBX 8 13 0 -1
BITMAP
01A8
0ABD
0C04
1800
2440
3BE0
3870
1030
0060
5090
F680
BE00
1400
ENDCHAR
STARTCHAR six
ENCODING 54
SWIDTH 477 0
DWIDTH 8 0
BBX 7 13 0 -1
BITMAP
0064
029C
0628
0D10
2850
3B74
7D28
7428
7034
7070
34A0
2A80
0500
ENDCHAR
STARTCHAR seven
ENCODING 55
SWIDTH 406 0
DWIDTH 7 0
BBX 6 13 1 -1
BITMAP
1AA0
BAB0
40A0
01C0
0340
0A00
0D00
2800
3400
B000
E000
D000
4000
ENDCHAR
STARTCHAR eight
ENCODING 56
SWIDTH 444 0
DWIDTH 7 0
BBX 7 13 0 -1
BITMAP
01A4
060C
0D0C
0D28
0EA0
0B80
1F80
35D0
A0E0
C0E0
C0D0
A740
1400
ENDCHAR
STARTCHAR nine
ENCODING 57
SWIDTH 462 0
DWIDTH 7 0
BBX 7 13 0 -1
BITMAP
01A0
0618
1C18
281C
342C
3438
34B8
2EA4
0570
00D0
A280
7E00
1400
ENDCHAR
STARTCHAR colon
ENCODING 58
SWIDTH 226 0
DWIDTH 4 0
BBX 4 6 -1 -1
BITMAP
04
2D
00
00
78
10
ENDCHAR
STARTCHAR semicolon
ENCODING 59
SWIDTH 212 0
DWIDTH 3 0
BBX 3 7 -1 -2
BITMAP
04
2C
00
00
74
34
50
ENDCHAR
STARTCHAR less
ENCODING 60
SWIDTH 271 0
DWIDTH 4 0
BBX 5 7 0 2
BITMAP
0040
0B40
2800
A000
A000
7400
2800
ENDCHAR
STARTCHAR equal
ENCODING 61
SWIDTH 374 0
DWIDTH 6 0
BBX 6 4 0 3
BITMAP
7FE0
1400
BFC0
4000
ENDCHAR
STARTCHAR greater
ENCODING 62
SWIDTH 250 0
DWIDTH 4 0
BBX 5 7 -1 2
BITMAP
0400
0E00
0700
0280
0780
1D00
7400
ENDCHAR
STARTCHAR question
ENCODING 63
SWIDTH 413 0
DWIDTH 7 0
BBX 8 13 0 -1
BITMAP
06A4
2D1D
340D
141C
0028
00A0
1B40
2800
3400
7000
0000
F000
5000
ENDCHAR
STARTCHAR at
ENCODING 64
SWIDTH 648 0
DWIDTH 10 0
BBX 11 12 -1 -1
BITMAP
000500
01A590
074024
1C2B98
24978C
32824C
63030C
630A18
32AC30
284D90
0A4640
004000
ENDCHAR
STARTCHAR A
ENCODING 65
SWIDTH 552 0
DWIDTH 9 0
BBX 10 16 -2 -4
BITMAP
000190
000A70
001870
003460
00A0A0
00D0D0
01C0D0
0281C0
03AAD0
2FABD0
0B0280
0E0340
1D0340
3C0340
640380
000240
ENDCHAR
STARTCHAR B
ENCODING 66
SWIDTH 607 0
DWIDTH 10 0
BBX 10 15 0 -3
BITMAP
01E900
1F8680
1B41D0
0701D0
0A02C0
0A0740
0D1D00
1FF800
294A00
340740
740740
700B00
B01E00
E0B800
BF9000
ENDCHAR
STARTCHAR C
ENCODING 67
SWIDTH 548 0
DWIDTH 9 0
BBX 9 15 0 -3
BITMAP
006A00
01D280
074280
0E0380
2C0780
380600
740000
B00000
B00000
E00000
E00000
E00400
B01800
39B000
1B8000
ENDCHAR
STARTCHAR D
ENCODING 68
SWIDTH 632 0
DWIDTH 10 0
BBX 10 15 0 -3
BITMAP
02A400
1E9E00
050280
0741D0
0B00D0
0A00E0
0E01E0
0D01D0
1C02C0
280380
380740
340E00
702800
E1E000
6E4000
ENDCHAR
STARTCHAR E
ENCODING 69
SWIDTH 523 0
DWIDTH 8 0
BBX 10 15 -1 -3
BITMAP
001A40
01E090
0380A0
0B40D0
0B0380
0B0000
074000
02F800
0A5000
280000
740000
740200
780600
2E6800
0AE000
ENDCHAR
STARTCHAR F
ENCODING 70
SWIDTH 585 0
DWIDTH 9 0
BBX 9 15 0 -3
BITMAP
01AA40
1E55C0
7401C0
7E0280
140340
000A00
055E40
1EAE40
003400
007000
00E000
01D000
02C000
03C000
028000
ENDCHAR
STARTCHAR G
ENCODING 71
SWIDTH 612 0
DWIDTH 10 0
BBX 9 15 0 -3
BITMAP
001A00
00E280
0381C0
0B02C0
1E0780
2C0700
380000
740000
B4AFC0
B05700
B00600
B00D00
701800
347000
1F8000
ENDCHAR
STARTCHAR H
ENCODING 72
SWIDTH 649 0
DWIDTH 10 0
BBX 11 15 0 -3
BITMAP
014014
034074
0740B0
0B00E0
0A01D0
0D01C0
1C0280
2EFFE0
399740
343600
742E00
701D00
B01D00
E01C00
D01800
ENDCHAR
STARTCHAR I
ENCODING 73
SWIDTH 537 0
DWIDTH 9 0
BBX 9 15 -1 -3
BITMAP
000640
002E80
007580
00B280
00A280
00A340
00A700
006B00
005E40
1BAE40
B41C00
E02400
E07000
B49000
1A4000
ENDCHAR
STARTCHAR J
ENCODING 74
SWIDTH 500 0
DWIDTH 8 0
BBX 12 15 -2 -3
BITMAP
001AA8
0019E9
0000D0
0001C0
0002C0
000380
000340
010740
0B8B00
1E0E00
280D00
301C00
703800
30A000
1A8000
ENDCHAR
STARTCHAR K
ENCODING 75
SWIDTH 497 0
DWIDTH 8 0
BBX 10 17 -1 -5
BITMAP
009050
01C0E0
0281D0
0342C0
070740
0A0E00
0D2800
0ED000
2FA400
282C00
281C00
342800
743400
B47000
A07000
002940
000500
ENDCHAR
STARTCHAR L
ENCODING 76
SWIDTH 492 0
DWIDTH 8 0
BBX 11 15 -2 -3
BITMAP
0000A0
0002B4
000734
000A70
000ED0
056F40
02AC00
002800
003400
007000
00A000
00D000
2FC000
BAE590
242F80
ENDCHAR
STARTCHAR M
ENCODING 77
SWIDTH 733 0
DWIDTH 12 0
BBX 14 15 -2 -3
BITMAP
00050090
001F02E0
002F07D0
003B0AC0
00770DC0
00A62980
00EA3240
00DA6340
15CAD700
328BC700
628B8A00
A3474E00
A7020E00
6A000E00
2D000B40
ENDCHAR
STARTCHAR N
ENCODING 78
SWIDTH 541 0
DWIDTH 9 0
BBX 11 15 -1 -3
BITMAP
014028
0380A8
07C1C8
07C298
0AC6E0
0DC780
0CC340
18C700
28D700
349A00
349900
74AD00
B07C00
B07800
602400
ENDCHAR
STARTCHAR O
ENCODING 79
SWIDTH 567 0
DWIDTH 9 0
BBX 9 15 0 -3
BITMAP
00B800
02DA00
0B0700
1D0740
2C0340
340340
740740
B00700
A00B00
A00A00
E00D00
A02C00
A03400
70A000
1F4000
ENDCHAR
STARTCHAR P
ENCODING 80
SWIDTH 552 0
DWIDTH 9 0
BBX 10 15 -1 -3
BITMAP
006A40
07D1E0
0DC0B0
018070
0240B0
0340E0
0702C0
070B40
0AB800
0E4000
1D0000
1C0000
280000
740000
600000
ENDCHAR
STARTCHAR Q
ENCODING 81
SWIDTH 583 0
DWIDTH 9 0
BBX 9 15 0 -3
BITMAP
006900
029700
0B0240
1D0280
280280
340280
740380
B00340
B00700
740E00
2C1D00
053800
2EF000
76F400
2E0A40
ENDCHAR
STARTCHAR R
ENCODING 82
SWIDTH 560 0
DWIDTH 9 0
BBX 11 16 -1 -4
BITMAP
006A80
07D1E0
0DC070
01C074
0280B0
0240E0
0342C0
0B4B40
1FF800
0E6400
0D1800
1D1C00
2C1C00
381D00
640E40
000B40
ENDCHAR
STARTCHAR S
ENCODING 83
SWIDTH 474 0
DWIDTH 8 0
BBX 9 15 -1 -3
BITMAP
006A00
02D280
0701C0
0A0280
0A0240
074000
03D000
00F000
007400
002800
002800
702800
B03400
74A000
2F8000
ENDCHAR
STARTCHAR T
ENCODING 84
SWIDTH 423 0
DWIDTH 7 0
BBX 9 15 0 -3
BITMAP
16A940
7EEA40
01D000
02C000
028000
034000
070000
070000
0A0000
0D0000
0D0000
1C0000
2C0000
380000
340000
ENDCHAR
STARTCHAR U
ENCODING 85
SWIDTH 574 0
DWIDTH 9 0
BBX 10 15 0 -3
BITMAP
014050
0B41D0
0F02C0
0E02C0
1D0380
2C0740
380B00
340A00
700D00
B01D00
A02C00
A03C00
A0BC00
B5DC00
2E0800
ENDCHAR
STARTCHAR V
ENCODING 86
SWIDTH 503 0
DWIDTH 8 0
BBX 9 15 0 -3
BITMAP
050140
1D03C0
2C0740
280B00
340D00
341C00
702800
703400
707000
70A000
30D000
31C000
268000
2B0000
0D0000
ENDCHAR
STARTCHAR W
ENCODING 87
SWIDTH 817 0
DWIDTH 13 0
BBX 13 15 0 -3
BITMAP
02400280
0B020380
0E0B0280
1C0F0380
280E0380
340D0340
341C0700
701C0700
60280A00
A0380D00
A0781C00
A0D82400
619C7000
7B0DD000
2D0B4000
ENDCHAR
STARTCHAR X
ENCODING 88
SWIDTH 579 0
DWIDTH 9 0
BBX 12 15 -1 -3
BITMAP
068009
09D02D
18A0B4
1DA1D0
0BB380
007A00
003D00
003400
00B400
01F400
03A800
0B2800
1D1C00
780D60
600780
ENDCHAR
STARTCHAR Y
ENCODING 89
SWIDTH 532 0
DWIDTH 9 0
BBX 9 15 0 -3
BITMAP
060180
0E0280
1D0380
2C0740
280700
340A00
740D00
702D00
707C00
75D800
2A2400
003000
10A000
BAC000
7E0000
ENDCHAR
STARTCHAR Z
ENCODING 90
SWIDTH 455 0
DWIDTH 7 0
BBX 10 15 -2 -3
BITMAP
006A90
02EAB0
0100A0
0001D0
000380
000B00
002D00
007400
01E000
038000
0B0000
1D0000
280000
7BFE00
296900
ENDCHAR
STARTCHAR bracketleft
ENCODING 91
SWIDTH 202 0
DWIDTH 3 0
BBX 6 16 -1 -2
BITMAP
0050
01E0
0240
0300
0600
0A00
0D00
0C00
1800
2800
2400
3000
7000
6000
A000
6400
ENDCHAR
STARTCHAR backslash
ENCODING 92
SWIDTH 273 0
DWIDTH 4 0
BBX 4 12 0 0
BITMAP
60
70
30
34
24
24
28
18
1C
0C
0D
0A
ENDCHAR
STARTCHAR bracketright
ENCODING 93
SWIDTH 216 0
DWIDTH 3 0
BBX 6 16 -2 -2
BITMAP
0050
01F0
0060
00A0
0090
00C0
00C0
0180
0240
0340
0300
0600
0900
0C00
2C00
6400
ENDCHAR
STARTCHAR asciicircum
ENCODING 94
SWIDTH 287 0
DWIDTH 5 0
BBX 5 7 0 5
BITMAP
0240
0B80
1D80
3580
61C0
C1C0
0040
ENDCHAR
STARTCHAR underscore
ENCODING 95
SWIDTH 439 0
DWIDTH 7 0
BBX 9 2 -2 0
BITMAP
015000
BFFF40
ENDCHAR
STARTCHAR grave
ENCODING 96
SWIDTH 567 0
DWIDTH 9 0
BBX 3 2 4 9
BITMAP
A0
28
ENDCHAR
STARTCHAR a
ENCODING 97
SWIDTH 435 0
DWIDTH 7 0
BBX 9 8 -1 -1
BITMAP
018000
07A000
1C7000
286040
34A180
75D200
3E7800
001000
ENDCHAR
STARTCHAR b
ENCODING 98
SWIDTH 415 0
DWIDTH 7 0
BBX 8 13 0 -1
BITMAP
0100
0B00
0E00
1D00
2C00
3800
7580
B2EA
90D0
9180
9340
7D00
1000
ENDCHAR
STARTCHAR c
ENCODING 99
SWIDTH 363 0
DWIDTH 6 0
BBX 7 8 0 -1
BITMAP
0600
2A40
A340
D008
C014
D090
BA40
1400
ENDCHAR
STARTCHAR d
ENCODING 100
SWIDTH 483 0
DWIDTH 8 0
BBX 9 12 0 -1
BITMAP
000D00
001D00
002D00
003C00
053800
2AB400
60E000
909080
C1C140
C78500
B9E400
004000
ENDCHAR
STARTCHAR e
ENCODING 101
SWIDTH 372 0
DWIDTH 6 0
BBX 7 8 0 -1
BITMAP
0600
1A80
7340
A904
E414
D060
BA40
1400
ENDCHAR
STARTCHAR f
ENCODING 102
SWIDTH 325 0
DWIDTH 5 0
BBX 9 19 -2 -8
BITMAP
00B000
00B000
00A000
00D000
01C000
018000
025A40
079000
0E0000
0B0000
0EC000
1CA000
186000
246000
34A000
70D000
638000
7E0000
140000
ENDCHAR
STARTCHAR g
ENCODING 103
SWIDTH 459 0
DWIDTH 7 0
BBX 10 15 -1 -8
BITMAP
014000
0AAC00
187800
243410
343480
34B600
2FB800
05E000
06D000
1DC000
35C000
728000
334000
3B0000
190000
ENDCHAR
STARTCHAR h
ENCODING 104
SWIDTH 465 0
DWIDTH 7 0
BBX 9 12 0 -1
BITMAP
0A0000
0D0000
1D0000
1C0000
284000
37E000
38A000
70D040
A1C200
D18800
D1E000
404000
ENDCHAR
STARTCHAR i
ENCODING 105
SWIDTH 274 0
DWIDTH 4 0
BBX 6 10 0 0
BITMAP
0D00
0400
0000
0000
3400
7000
7010
A080
9200
7800
ENDCHAR
STARTCHAR j
ENCODING 106
SWIDTH 267 0
DWIDTH 4 0
BBX 10 18 -4 -7
BITMAP
000100
000A00
000400
000000
000000
002800
003400
007050
00A180
009600
00E800
01D000
078000
1E8000
374000
630000
660000
2D0000
ENDCHAR
STARTCHAR k
ENCODING 107
SWIDTH 440 0
DWIDTH 7 0
BBX 9 12 -1 -1
BITMAP
038000
034000
070000
060000
091000
0DF400
1E2400
199040
26D180
309200
70E800
105000
ENDCHAR
STARTCHAR l
ENCODING 108
SWIDTH 218 0
DWIDTH 4 0
BBX 4 12 0 -1
BITMAP
0E
0D
1C
2C
28
34
70
70
A0
D0
C0
40
ENDCHAR
STARTCHAR m
ENCODING 109
SWIDTH 717 0
DWIDTH 11 0
BBX 13 7 0 -1
BITMAP
26E7D000
39B9D000
74B1D040
B091C200
A0C28900
D1C2E400
40004000
ENDCHAR
STARTCHAR n
ENCODING 110
SWIDTH 461 0
DWIDTH 7 0
BBX 9 7 0 -1
BITMAP
3BD000
78E000
70D040
A1C200
D18900
C2E400
004000
ENDCHAR
STARTCHAR o
ENCODING 111
SWIDTH 393 0
DWIDTH 6 0
BBX 8 8 0 -1
BITMAP
0400
3A40
B186
F5E4
DB80
C340
AD00
1000
ENDCHAR
STARTCHAR p
ENCODING 112
SWIDTH 451 0
DWIDTH 7 0
BBX 11 13 -2 -7
BITMAP
03AD00
038A00
070A14
0A0D20
0A6880
0FFA00
1D4400
280000
240000
340000
700000
B00000
500000
ENDCHAR
STARTCHAR q
ENCODING 113
SWIDTH 462 0
DWIDTH 7 0
BBX 8 13 0 -7
BITMAP
1AB0
70E0
A0A0
D0D0
D1C2
A688
16A0
02D0
0340
0B00
0E00
0E00
0A00
ENDCHAR
STARTCHAR r
ENCODING 114
SWIDTH 406 0
DWIDTH 7 0
BBX 9 9 -1 -1
BITMAP
010000
0B0000
0F4000
0EA000
24A040
21C200
928900
82A400
005000
ENDCHAR
STARTCHAR s
ENCODING 115
SWIDTH 351 0
DWIDTH 6 0
BBX 5 8 0 -1
BITMAP
0E00
2D00
2D00
5600
4340
6240
7A00
1400
ENDCHAR
STARTCHAR t
ENCODING 116
SWIDTH 301 0
DWIDTH 5 0
BBX 8 12 -1 -1
BITMAP
02C0
0380
ABF9
5B40
0B00
0E00
0D00
1C08
1414
1460
1E80
0100
ENDCHAR
STARTCHAR u
ENCODING 117
SWIDTH 468 0
DWIDTH 8 0
BBX 9 6 0 0
BITMAP
24A000
70E000
A1D080
D1C200
D28900
BDF400
ENDCHAR
STARTCHAR v
ENCODING 118
SWIDTH 427 0
DWIDTH 7 0
BBX 9 8 0 -1
BITMAP
001000
70B000
A0E040
91E900
925000
A60000
780000
100000
ENDCHAR
STARTCHAR w
ENCODING 119
SWIDTH 646 0
DWIDTH 10 0
BBX 12 8 0 -1
BITMAP
001000
74E2C0
71D381
A18399
914350
928A00
A8A800
101000
ENDCHAR
STARTCHAR x
ENCODING 120
SWIDTH 399 0
DWIDTH 6 0
BBX 8 8 -1 -1
BITMAP
0410
1C78
0AE0
0780
0B01
2A49
61F4
4040
ENDCHAR
STARTCHAR y
ENCODING 121
SWIDTH 406 0
DWIDTH 7 0
BBX 7 13 -1 -7
BITMAP
1C28
2C28
3834
34B0
71E0
3B90
04D0
01C0
0180
0280
0340
0740
0200
ENDCHAR
STARTCHAR z
ENCODING 122
SWIDTH 448 0
DWIDTH 7 0
BBX 9 14 -1 -7
BITMAP
005400
07EC00
001800
003000
009080
02E640
026D00
01B400
0A3000
186000
30D000
61C000
674000
3D0000
ENDCHAR
STARTCHAR braceleft
ENCODING 123
SWIDTH 243 0
DWIDTH 4 0
BBX 6 16 -1 -2
BITMAP
0010
00B0
0290
0340
0300
0300
0300
1900
1C00
0800
0C00
2800
3000
7000
3C00
1800
ENDCHAR
STARTCHAR bar
ENCODING 124
SWIDTH 253 0
DWIDTH 4 0
BBX 4 13 0 -1
BITMAP
02
0A
09
0C
1C
18
24
34
70
60
A0
D0
40
ENDCHAR
STARTCHAR braceright
ENCODING 125
SWIDTH 243 0
DWIDTH 4 0
BBX 6 15 -2 -2
BITMAP
01D0
00B0
0070
0060
00C0
0180
0180
01D0
0340
0600
0600
0600
0A00
2D00
6400
ENDCHAR
STARTCHAR asciitilde
ENCODING 126
SWIDTH 329 0
DWIDTH 5 0
BBX 7 2 -1 5
BITMAP
1504
7AF4
ENDCHAR
STARTCHAR uni00A0
ENCODING 160
SWIDTH 280 0
DWIDTH 4 0
BBX 1 1 0 0
BITMAP
00
ENDCHAR
STARTCHAR exclamdown
ENCODING 161
SWIDTH 249 0
DWIDTH 4 0
BBX 4 13 0 -1
BITMAP
06
0A
00
0D
1C
1C
28
34
74
B0
E0
E0
40
ENDCHAR
STARTCHAR cent
ENCODING 162
SWIDTH 322 0
DWIDTH 5 0
BBX 6 12 0 0
BITMAP
0040
0140
0A80
2890
72C0
9140
C000
C000
C000
A600
3800
3000
ENDCHAR
STARTCHAR sterling
ENCODING 163
SWIDTH 318 0
DWIDTH 5 0
BBX 7 10 -1 1
BITMAP
01A4
0318
0664
0950
0C00
2E40
1900
2400
6000
BEC0
ENDCHAR
STARTCHAR currency
ENCODING 164
SWIDTH 347 0
DWIDTH 6 0
BBX 6 6 0 3
BITMAP
1010
3A90
2580
2140
7B40
8180
ENDCHAR
STARTCHAR yen
ENCODING 165
SWIDTH 326 0
DWIDTH 5 0
BBX 6 10 0 1
BITMAP
1010
3070
2490
1580
1E00
0D00
6E00
6D00
6400
3000
ENDCHAR
STARTCHAR brokenbar
ENCODING 166
SWIDTH 253 0
DWIDTH 4 0
BBX 4 13 0 -1
BITMAP
02
0A
09
0D
1C
04
00
34
70
60
A0
D0
40
ENDCHAR
STARTCHAR section
ENCODING 167
SWIDTH 297 0
DWIDTH 5 0
BBX 7 13 -1 -1
BITMAP
0160
0628
0924
0600
0280
1990
2490
2980
0A00
1240
6180
6640
0400
ENDCHAR
STARTCHAR dieresis
ENCODING 168
SWIDTH 567 0
DWIDTH 9 0
BBX 5 2 3 9
BITMAP
1140
6240
ENDCHAR
STARTCHAR copyright
ENCODING 169
SWIDTH 456 0
DWIDTH 7 0
BBX 8 9 0 3
BITMAP
01A0
0918
25A6
6622
9902
9916
6648
2964
0540
ENDCHAR
STARTCHAR ordfeminine
ENCODING 170
SWIDTH 373 0
DWIDTH 6 0
BBX 8 9 -1 -1
BITMAP
0180
09D0
1890
34C0
71C5
3AA4
1000
BFD0
5400
ENDCHAR
STARTCHAR guillemotleft
ENCODING 171
SWIDTH 346 0
DWIDTH 6 0
BBX 6 6 -1 0
BITMAP
0620
18D0
7640
7340
2580
0880
ENDCHAR
STARTCHAR logicalnot
ENCODING 172
SWIDTH 512 0
DWIDTH 8 0
BBX 8 5 0 2
BITMAP
1555
EAAB
0006
0009
0004
ENDCHAR
STARTCHAR sfthyphen
ENCODING 173
SWIDTH 353 0
DWIDTH 6 0
BBX 6 2 0 4
BITMAP
6A90
A940
ENDCHAR
STARTCHAR registered
ENCODING 174
SWIDTH 456 0
DWIDTH 7 0
BBX 8 9 0 3
BITMAP
01A0
0958
2766
6222
9782
9586
6468
2964
0540
ENDCHAR
STARTCHAR macron
ENCODING 175
SWIDTH 567 0
DWIDTH 9 0
BBX 4 2 3 9
BITMAP
15
6A
ENDCHAR
STARTCHAR degree
ENCODING 176
SWIDTH 144 0
DWIDTH 2 0
BBX 2 2 1 9
BITMAP
60
A0
ENDCHAR
STARTCHAR twosuperior
ENCODING 178
SWIDTH 268 0
DWIDTH 4 0
BBX 5 8 0 4
BITMAP
0A40
29C0
1580
0300
0900
2400
AA00
5600
ENDCHAR
STARTCHAR threesuperior
ENCODING 179
SWIDTH 262 0
DWIDTH 4 0
BBX 5 8 0 4
BITMAP
0A40
2580
1680
0A00
0B00
0240
A600
2800
ENDCHAR
STARTCHAR acute
ENCODING 180
SWIDTH 567 0
DWIDTH 9 0
BBX 3 2 4 9
BITMAP
18
B4
ENDCHAR
STARTCHAR mu
ENCODING 181
SWIDTH 453 0
DWIDTH 7 0
BBX 9 9 -2 -3
BITMAP
060800
092800
0C3800
1C3440
2C7080
3FAE00
300000
700000
900000
ENDCHAR
STARTCHAR paragraph
ENCODING 182
SWIDTH 411 0
DWIDTH 7 0
BBX 8 12 0 0
BITMAP
0055
1BFE
3FD8
7F98
7FA4
2F70
0730
0660
0650
0990
0CC0
1D80
ENDCHAR
STARTCHAR periodcentered
ENCODING 183
SWIDTH 168 0
DWIDTH 3 0
BBX 3 2 0 4
BITMAP
B4
50
ENDCHAR
STARTCHAR cedilla
ENCODING 184
SWIDTH 567 0
DWIDTH 9 0
BBX 3 4 4 -2
BITMAP
10
A0
6C
64
ENDCHAR
STARTCHAR onesuperior
ENCODING 185
SWIDTH 150 0
DWIDTH 2 0
BBX 3 8 0 4
BITMAP
08
1C
18
24
30
30
60
50
ENDCHAR
STARTCHAR ordmasculine
ENCODING 186
SWIDTH 319 0
DWIDTH 5 0
BBX 7 9 -1 -1
BITMAP
0500
1D80
2898
3AE0
3180
3740
0400
BF80
5000
ENDCHAR
STARTCHAR guillemotright
ENCODING 187
SWIDTH 346 0
DWIDTH 6 0
BBX 6 6 -1 0
BITMAP
2240
18C0
0DA0
0D90
2680
9600
ENDCHAR
STARTCHAR onequarter
ENCODING 188
SWIDTH 579 0
DWIDTH 9 0
BBX 9 12 0 0
BITMAP
080140
1C0700
180D00
242800
206000
30C380
624A40
562600
0CBB00
285A00
700A00
D00900
ENDCHAR
STARTCHAR onehalf
ENCODING 189
SWIDTH 603 0
DWIDTH 10 0
BBX 10 13 0 -1
BITMAP
080140
1C0700
180900
142800
247000
30DAC0
6298D0
1605C0
0D0240
280900
702400
D07F40
001000
ENDCHAR
STARTCHAR threequarters
ENCODING 190
SWIDTH 669 0
DWIDTH 11 0
BBX 10 13 0 -1
BITMAP
0A4020
258090
168180
0A0700
0B0900
0268B0
A671A0
28D650
028EA0
0705D0
0D00C0
2801C0
100000
ENDCHAR
STARTCHAR questiondown
ENCODING 191
SWIDTH 413 0
DWIDTH 7 0
BBX 8 13 -1 -1
BITMAP
000A
0019
0004
0028
0038
0074
0B90
2800
7000
A024
A038
7AE0
0540
ENDCHAR
STARTCHAR Agrave
ENCODING 192
SWIDTH 552 0
DWIDTH 9 0
BBX 10 19 -2 -4
BITMAP
000180
0000B0
000000
000190
000A70
001870
003460
00A0A0
00D0D0
01C0D0
0281C0
03AAD0
2FABD0
0B0280
0E0340
1D0340
3C0340
640380
000240
ENDCHAR
STARTCHAR Aacute
ENCODING 193
SWIDTH 552 0
DWIDTH 9 0
BBX 10 19 -2 -4
BITMAP
000020
0001D0
000000
000190
000A70
001870
003460
00A0A0
00D0D0
01C0D0
0281C0
03AAD0
2FABD0
0B0280
0E0340
1D0340
3C0340
640380
000240
ENDCHAR
STARTCHAR Acircumflex
ENCODING 194
SWIDTH 552 0
DWIDTH 9 0
BBX 11 19 -2 -4
BITMAP
0000B0
000258
000000
000190
000A70
001870
003460
00A0A0
00D0D0
01C0D0
0281C0
03AAD0
2FABD0
0B0280
0E0340
1D0340
3C0340
640380
000240
ENDCHAR
STARTCHAR Atilde
ENCODING 195
SWIDTH 552 0
DWIDTH 9 0
BBX 12 18 -2 -4
BITMAP
000155
000668
000190
000A70
001870
003460
00A0A0
00D0D0
01C0D0
0281C0
03AAD0
2FABD0
0B0280
0E0340
1D0340
3C0340
640380
000240
ENDCHAR
STARTCHAR Adieresis
ENCODING 196
SWIDTH 552 0
DWIDTH 9 0
BBX 11 19 -2 -4
BITMAP
000144
000258
000000
000190
000A70
001870
003460
00A0A0
00D0D0
01C0D0
0281C0
03AAD0
2FABD0
0B0280
0E0340
1D0340
3C0340
640380
000240
ENDCHAR
STARTCHAR Aring
ENCODING 197
SWIDTH 552 0
DWIDTH 9 0
BBX 10 18 -2 -4
BITMAP
000050
0000A0
0001E0
000A70
001870
003460
00A0A0
00D0D0
01C0D0
0281C0
03AAD0
2FABD0
0B0280
0E0340
1D0340
3C0340
640380
000240
ENDCHAR
STARTCHAR AE
ENCODING 198
SWIDTH 869 0
DWIDTH 14 0
BBX 16 16 -2 -4
BITMAP
000190A9
000A7B47
00187D07
0034780B
00A0B81D
00D0F800
01C0FC00
0281CFC0
03AAF540
2FABD000
0B02C004
0E038008
1D03C020
3C03E590
6403EE40
00024000
ENDCHAR
STARTCHAR Ccedilla
ENCODING 199
SWIDTH 548 0
DWIDTH 9 0
BBX 9 19 0 -7
BITMAP
006A00
01D280
074280
0E0380
2C0780
380600
740000
B00000
B00000
E00000
E00000
E00400
B01800
39B000
1B8000
090000
068000
064000
040000
ENDCHAR
STARTCHAR Egrave
ENCODING 200
SWIDTH 523 0
DWIDTH 8 0
BBX 10 18 -1 -3
BITMAP
000D00
000640
000000
001A40
01E090
0380A0
0B40D0
0B0380
0B0000
074000
02F800
0A5000
280000
740000
740200
780600
2E6800
0AE000
ENDCHAR
STARTCHAR Eacute
ENCODING 201
SWIDTH 523 0
DWIDTH 8 0
BBX 10 18 -1 -3
BITMAP
000180
000740
000000
001A40
01E090
0380A0
0B40D0
0B0380
0B0000
074000
02F800
0A5000
280000
740000
740200
780600
2E6800
0AE000
ENDCHAR
STARTCHAR Ecircumflex
ENCODING 202
SWIDTH 523 0
DWIDTH 8 0
BBX 10 18 -1 -3
BITMAP
0002C0
000990
000000
001A40
01E090
0380A0
0B40D0
0B0380
0B0000
074000
02F800
0A5000
280000
740000
740200
780600
2E6800
0AE000
ENDCHAR
STARTCHAR Edieresis
ENCODING 203
SWIDTH 523 0
DWIDTH 8 0
BBX 10 18 -1 -3
BITMAP
000450
001890
000000
001A40
01E090
0380A0
0B40D0
0B0380
0B0000
074000
02F800
0A5000
280000
740000
740200
780600
2E6800
0AE000
ENDCHAR
STARTCHAR Igrave
ENCODING 204
SWIDTH 537 0
DWIDTH 9 0
BBX 9 18 -1 -3
BITMAP
000A00
000280
000000
000640
002E80
007580
00B280
00A280
00A340
00A700
006B00
005E40
1BAE40
B41C00
E02400
E07000
B49000
1A4000
ENDCHAR
STARTCHAR Iacute
ENCODING 205
SWIDTH 537 0
DWIDTH 9 0
BBX 10 18 -1 -3
BITMAP
000090
000380
000000
000640
002E80
007580
00B280
00A280
00A340
00A700
006B00
005E40
1BAE40
B41C00
E02400
E07000
B49000
1A4000
ENDCHAR
STARTCHAR Icircumflex
ENCODING 206
SWIDTH 537 0
DWIDTH 9 0
BBX 10 18 -1 -3
BITMAP
0001E0
000620
000000
000640
002E80
007580
00B280
00A280
00A340
00A700
006B00
005E40
1BAE40
B41C00
E02400
E07000
B49000
1A4000
ENDCHAR
STARTCHAR Idieresis
ENCODING 207
SWIDTH 537 0
DWIDTH 9 0
BBX 10 18 -1 -3
BITMAP
000510
000960
000000
000640
002E80
007580
00B280
00A280
00A340
00A700
006B00
005E40
1BAE40
B41C00
E02400
E07000
B49000
1A4000
ENDCHAR
STARTCHAR Eth
ENCODING 208
SWIDTH 632 0
DWIDTH 10 0
BBX 11 15 -1 -3
BITMAP
00A900
07A780
0140A0
01D074
02C034
028038
038078
7FF074
0700B0
0A00E0
0E01D0
0D0380
1C0A00
387800
1B9000
ENDCHAR
STARTCHAR Ntilde
ENCODING 209
SWIDTH 541 0
DWIDTH 9 0
BBX 11 17 -1 -3
BITMAP
001550
006690
014028
0380A8
07C1C8
07C298
0AC6E0
0DC780
0CC340
18C700
28D700
349A00
349900
74AD00
B07C00
B07800
602400
ENDCHAR
STARTCHAR Ograve
ENCODING 210
SWIDTH 567 0
DWIDTH 9 0
BBX 9 18 0 -3
BITMAP
003400
001900
000000
00B800
02DA00
0B0700
1D0740
2C0340
340340
740740
B00700
A00B00
A00A00
E00D00
A02C00
A03400
70A000
1F4000
ENDCHAR
STARTCHAR Oacute
ENCODING 211
SWIDTH 567 0
DWIDTH 9 0
BBX 9 18 0 -3
BITMAP
000500
002900
000000
00B800
02DA00
0B0700
1D0740
2C0340
340340
740740
B00700
A00B00
A00A00
E00D00
A02C00
A03400
70A000
1F4000
ENDCHAR
STARTCHAR Ocircumflex
ENCODING 212
SWIDTH 567 0
DWIDTH 9 0
BBX 9 18 0 -3
BITMAP
001D00
006600
000000
00B800
02DA00
0B0700
1D0740
2C0340
340340
740740
B00700
A00B00
A00A00
E00D00
A02C00
A03400
70A000
1F4000
ENDCHAR
STARTCHAR Otilde
ENCODING 213
SWIDTH 567 0
DWIDTH 9 0
BBX 9 18 0 -3
BITMAP
005540
019A40
000000
00B800
02DA00
0B0700
1D0740
2C0340
340340
740740
B00700
A00B00
A00A00
E00D00
A02C00
A03400
70A000
1F4000
ENDCHAR
STARTCHAR Odieresis
ENCODING 214
SWIDTH 567 0
DWIDTH 9 0
BBX 9 18 0 -3
BITMAP
005100
009600
000000
00B800
02DA00
0B0700
1D0740
2C0340
340340
740740
B00700
A00B00
A00A00
E00D00
A02C00
A03400
70A000
1F4000
ENDCHAR
STARTCHAR multiply
ENCODING 215
SWIDTH 281 0
DWIDTH 5 0
BBX 5 6 0 2
BITMAP
7180
2B00
2C00
7C00
9900
4100
ENDCHAR
STARTCHAR Oslash
ENCODING 216
SWIDTH 597 0
DWIDTH 10 0
BBX 10 16 0 -4
BITMAP
00B9D0
02EB80
070740
0E0F40
1C2F40
283740
34A340
71C340
728700
B70B00
BE0E00
BC1C00
783800
B4A000
EF8000
400000
ENDCHAR
STARTCHAR Ugrave
ENCODING 217
SWIDTH 574 0
DWIDTH 9 0
BBX 10 17 0 -3
BITMAP
003400
001900
014050
0B41D0
0F02C0
0E02C0
1D0380
2C0740
380B00
340A00
700D00
B01D00
A02C00
A03C00
A0BC00
B5DC00
2E0800
ENDCHAR
STARTCHAR Uacute
ENCODING 218
SWIDTH 574 0
DWIDTH 9 0
BBX 10 17 0 -3
BITMAP
000240
000E00
014050
0B41D0
0F02C0
0E02C0
1D0380
2C0740
380B00
340A00
700D00
B01D00
A02C00
A03C00
A0BC00
B5DC00
2E0800
ENDCHAR
STARTCHAR Ucircumflex
ENCODING 219
SWIDTH 574 0
DWIDTH 9 0
BBX 10 17 0 -3
BITMAP
000B00
002640
014050
0B41D0
0F02C0
0E02C0
1D0380
2C0740
380B00
340A00
700D00
B01D00
A02C00
A03C00
A0BC00
B5DC00
2E0800
ENDCHAR
STARTCHAR Udieresis
ENCODING 220
SWIDTH 574 0
DWIDTH 9 0
BBX 10 17 0 -3
BITMAP
001140
006240
014050
0B41D0
0F02C0
0E02C0
1D0380
2C0740
380B00
340A00
700D00
B01D00
A02C00
A03C00
A0BC00
B5DC00
2E0800
ENDCHAR
STARTCHAR Yacute
ENCODING 221
SWIDTH 532 0
DWIDTH 9 0
BBX 9 17 0 -3
BITMAP
000600
002D00
060180
0E0280
1D0380
2C0740
280700
340A00
740D00
702D00
707C00
75D800
2A2400
003000
10A000
BAC000
7E0000
ENDCHAR
STARTCHAR Thorn
ENCODING 222
SWIDTH 569 0
DWIDTH 9 0
BBX 10 15 -1 -3
BITMAP
004000
02C000
028000
03EF40
1F42D0
1F00E0
0A00E0
0D00D0
1C02C0
1C0740
281D00
3AE000
380000
740000
600000
ENDCHAR
STARTCHAR germandbls
ENCODING 223
SWIDTH 495 0
DWIDTH 8 0
BBX 9 19 -2 -8
BITMAP
001900
007740
00D340
01C700
028900
034C00
070A00
0A0740
6D0280
1E25C0
1A6E40
24C500
349000
309000
60D000
A28000
D74000
FD0000
500000
ENDCHAR
STARTCHAR agrave
ENCODING 224
SWIDTH 435 0
DWIDTH 7 0
BBX 9 11 -1 -1
BITMAP
028000
01A000
000000
018000
07A000
1C7000
286040
34A180
75D200
3E7800
001000
ENDCHAR
STARTCHAR aacute
ENCODING 225
SWIDTH 435 0
DWIDTH 7 0
BBX 9 11 -1 -1
BITMAP
006000
01D000
000000
018000
07A000
1C7000
286040
34A180
75D200
3E7800
001000
ENDCHAR
STARTCHAR acircumflex
ENCODING 226
SWIDTH 435 0
DWIDTH 7 0
BBX 9 10 -1 -1
BITMAP
00B000
022400
018000
07A000
1C7000
286040
34A180
75D200
3E7800
001000
ENDCHAR
STARTCHAR atilde
ENCODING 227
SWIDTH 435 0
DWIDTH 7 0
BBX 9 10 -1 -1
BITMAP
015400
096800
018000
07A000
1C7000
286040
34A180
75D200
3E7800
001000
ENDCHAR
STARTCHAR adieresis
ENCODING 228
SWIDTH 435 0
DWIDTH 7 0
BBX 9 10 -1 -1
BITMAP
014400
025800
018000
07A000
1C7000
286040
34A180
75D200
3E7800
001000
ENDCHAR
STARTCHAR aring
ENCODING 229
SWIDTH 435 0
DWIDTH 7 0
BBX 9 10 -1 -1
BITMAP
009000
01A000
018000
07A000
1C7000
286040
34A180
75D200
3E7800
001000
ENDCHAR
STARTCHAR ae
ENCODING 230
SWIDTH 594 0
DWIDTH 10 0
BBX 12 8 -1 -1
BITMAP
019140
07AAC0
1C7580
287601
34B808
75F024
3E3A80
000500
ENDCHAR
STARTCHAR ccedilla
ENCODING 231
SWIDTH 363 0
DWIDTH 6 0
BBX 7 11 0 -4
BITMAP
0600
2A40
A340
D008
C014
D090
BA40
2400
2900
0900
2400
ENDCHAR
STARTCHAR egrave
ENCODING 232
SWIDTH 372 0
DWIDTH 6 0
BBX 7 11 0 -1
BITMAP
0D00
0640
0000
0600
1A80
7340
A904
E414
D060
BA40
1400
ENDCHAR
STARTCHAR eacute
ENCODING 233
SWIDTH 372 0
DWIDTH 6 0
BBX 7 11 0 -1
BITMAP
0180
0740
0000
0600
1A80
7340
A904
E414
D060
BA40
1400
ENDCHAR
STARTCHAR ecircumflex
ENCODING 234
SWIDTH 372 0
DWIDTH 6 0
BBX 7 10 0 -1
BITMAP
0780
1890
0600
1A80
7340
A904
E414
D060
BA40
1400
ENDCHAR
STARTCHAR edieresis
ENCODING 235
SWIDTH 372 0
DWIDTH 6 0
BBX 7 10 0 -1
BITMAP
0450
1890
0600
1A80
7340
A904
E414
D060
BA40
1400
ENDCHAR
STARTCHAR igrave
ENCODING 236
SWIDTH 274 0
DWIDTH 4 0
BBX 6 10 0 0
BITMAP
A000
2800
0000
0000
3400
7000
7010
A080
9200
7800
ENDCHAR
STARTCHAR iacute
ENCODING 237
SWIDTH 274 0
DWIDTH 4 0
BBX 6 10 0 0
BITMAP
0140
0A40
0000
0000
3400
7000
7010
A080
9200
7800
ENDCHAR
STARTCHAR icircumflex
ENCODING 238
SWIDTH 274 0
DWIDTH 4 0
BBX 6 9 0 0
BITMAP
1E00
6240
0000
3400
7000
7010
A080
9200
7800
ENDCHAR
STARTCHAR idieresis
ENCODING 239
SWIDTH 274 0
DWIDTH 4 0
BBX 6 9 0 0
BITMAP
1140
6240
0000
3400
7000
7010
A080
9200
7800
ENDCHAR
STARTCHAR eth
ENCODING 240
SWIDTH 393 0
DWIDTH 6 0
BBX 8 12 0 -1
BITMAP
0100
0140
06F8
09C0
04C0
3AC0
B1C6
F5E4
DB80
C340
AE00
1000
ENDCHAR
STARTCHAR ntilde
ENCODING 241
SWIDTH 461 0
DWIDTH 7 0
BBX 9 10 0 -1
BITMAP
055000
19A000
000000
3BD000
78E000
70D040
A1C200
D18900
C2E400
004000
ENDCHAR
STARTCHAR ograve
ENCODING 242
SWIDTH 393 0
DWIDTH 6 0
BBX 8 11 0 -1
BITMAP
0D00
0640
0000
0400
3A40
B186
F5E4
DB80
C340
AD00
1000
ENDCHAR
STARTCHAR oacute
ENCODING 243
SWIDTH 393 0
DWIDTH 6 0
BBX 8 11 0 -1
BITMAP
0180
0740
0000
0400
3A40
B186
F5E4
DB80
C340
AD00
1000
ENDCHAR
STARTCHAR ocircumflex
ENCODING 244
SWIDTH 393 0
DWIDTH 6 0
BBX 8 10 0 -1
BITMAP
0B40
2580
0400
3A40
B186
F5E4
DB80
C340
AD00
1000
ENDCHAR
STARTCHAR otilde
ENCODING 245
SWIDTH 393 0
DWIDTH 6 0
BBX 8 10 0 -1
BITMAP
1550
2690
0400
3A40
B186
F5E4
DB80
C340
AD00
1000
ENDCHAR
STARTCHAR odieresis
ENCODING 246
SWIDTH 393 0
DWIDTH 6 0
BBX 8 10 0 -1
BITMAP
1440
1890
0400
3A40
B186
F5E4
DB80
C340
AD00
1000
ENDCHAR
STARTCHAR divide
ENCODING 247
SWIDTH 350 0
DWIDTH 6 0
BBX 6 5 0 3
BITMAP
0600
1540
EA90
0400
1800
ENDCHAR
STARTCHAR oslash
ENCODING 248
SWIDTH 406 0
DWIDTH 7 0
BBX 9 8 -1 -1
BITMAP
016800
0AB000
1C3180
2D7A00
36F400
249000
2A8000
750000
ENDCHAR
STARTCHAR ugrave
ENCODING 249
SWIDTH 468 0
DWIDTH 8 0
BBX 9 9 0 0
BITMAP
0A0000
068000
000000
24A000
70E000
A1D080
D1C200
D28900
BDF400
ENDCHAR
STARTCHAR uacute
ENCODING 250
SWIDTH 468 0
DWIDTH 8 0
BBX 9 9 0 0
BITMAP
009000
078000
000000
24A000
70E000
A1D080
D1C200
D28900
BDF400
ENDCHAR
STARTCHAR ucircumflex
ENCODING 251
SWIDTH 468 0
DWIDTH 8 0
BBX 9 9 0 0
BITMAP
02C000
096000
000000
24A000
70E000
A1D080
D1C200
D28900
BDF400
ENDCHAR
STARTCHAR udieresis
ENCODING 252
SWIDTH 468 0
DWIDTH 8 0
BBX 9 9 0 0
BITMAP
051000
096000
000000
24A000
70E000
A1D080
D1C200
D28900
BDF400
ENDCHAR
STARTCHAR yacute
ENCODING 253
SWIDTH 406 0
DWIDTH 7 0
BBX 7 16 -1 -7
BITMAP
0024
00A0
0000
1C28
2C28
3834
34B0
71E0
3B90
04D0
01C0
0180
0280
0340
0740
0200
ENDCHAR
STARTCHAR thorn
ENCODING 254
SWIDTH 451 0
DWIDTH 7 0
BBX 11 18 -2 -7
BITMAP
00A000
00E000
00D000
01C000
028000
02AD00
038A00
070A14
0A0D20
0A6880
0FFA00
1D4400
280000
240000
340000
700000
B00000
500000
ENDCHAR
STARTCHAR ydieresis
ENCODING 255
SWIDTH 406 0
DWIDTH 7 0
BBX 7 16 -1 -7
BITMAP
0114
0624
0000
1C28
2C28
3834
34B0
71E0
3B90
04D0
01C0
0180
0280
0340
0740
0200
ENDCHAR
STARTCHAR dotlessi
ENCODING 305
SWIDTH 274 0
DWIDTH 4 0
BBX 6 6 0 0
BITMAP
3400
7000
7010
A080
9200
7800
ENDCHAR
STARTCHAR Lslash
ENCODING 321
SWIDTH 492 0
DWIDTH 8 0
BBX 11 15 -2 -3
BITMAP
0000A0
0002B4
000734
000A70
000ED0
056F40
02AC00
002800
01BF40
03B400
00A000
00D000
2FC000
BAE590
242F80
ENDCHAR
STARTCHAR lslash
ENCODING 322
SWIDTH 218 0
DWIDTH 4 0
BBX 6 12 -1 -1
BITMAP
0380
0340
0700
0B00
0B90
BE40
5C00
1C00
2800
3400
3000
1000
ENDCHAR
STARTCHAR OE
ENCODING 338
SWIDTH 918 0
DWIDTH 15 0
BBX 15 15 0 -3
BITMAP
00B806A0
02DA2D28
0B07B01C
1D07E028
2C03D0B4
3403D000
7407E000
B0077E00
A00BD500
A00B0000
E00E0010
A02E0050
A03F0080
70A79740
1F81B800
ENDCHAR
STARTCHAR oe
ENCODING 339
SWIDTH 583 0
DWIDTH 9 0
BBX 11 8 0 -1
BITMAP
040500
3A6B00
B1D600
F9DC04
DBE020
C3C090
AEEA00
101400
ENDCHAR
STARTCHAR Scaron
ENCODING 352
SWIDTH 474 0
DWIDTH 8 0
BBX 10 18 -1 -3
BITMAP
0009A0
000740
000000
006A00
02D280
0701C0
0A0280
0A0240
074000
03D000
00F000
007400
002800
002800
702800
B03400
74A000
2F8000
ENDCHAR
STARTCHAR scaron
ENCODING 353
SWIDTH 351 0
DWIDTH 6 0
BBX 6 11 0 -1
BITMAP
1890
0A40
0000
0E00
2D00
2D00
5600
4340
6240
7A00
1400
ENDCHAR
STARTCHAR Ydieresis
ENCODING 376
SWIDTH 532 0
DWIDTH 9 0
BBX 9 17 0 -3
BITMAP
005100
009600
060180
0E0280
1D0380
2C0740
280700
340A00
740D00
702D00
707C00
75D800
2A2400
003000
10A000
BAC000
7E0000
ENDCHAR
STARTCHAR Zcaron
ENCODING 381
SWIDTH 455 0
DWIDTH 7 0
BBX 10 18 -2 -3
BITMAP
000A60
000380
000000
006A90
02EAB0
0100A0
0001D0
000380
000B00
002D00
007400
01E000
038000
0B0000
1D0000
280000
7BFE00
296900
ENDCHAR
STARTCHAR zcaron
ENCODING 382
SWIDTH 349 0
DWIDTH 6 0
BBX 9 17 -2 -7
BITMAP
008900
00B400
000000
015000
0BB800
043000
00A000
01C140
07A600
053800
02B000
1DA000
34D000
918000
C34000
DA0000
B80000
ENDCHAR
STARTCHAR circumflex
ENCODING 710
SWIDTH 567 0
DWIDTH 9 0
BBX 5 2 3 9
BITMAP
1A00
6240
ENDCHAR
STARTCHAR caron
ENCODING 711
SWIDTH 567 0
DWIDTH 9 0
BBX 5 2 3 9
BITMAP
6240
2900
ENDCHAR
STARTCHAR breve
ENCODING 728
SWIDTH 567 0
DWIDTH 9 0
BBX 5 3 3 8
BITMAP
5140
7B00
1400
ENDCHAR
STARTCHAR dotaccent
ENCODING 729
SWIDTH 567 0
DWIDTH 9 0
BBX 2 2 4 9
BITMAP
10
60
ENDCHAR
STARTCHAR ring
ENCODING 730
SWIDTH 567 0
DWIDTH 9 0
BBX 3 2 4 9
BITMAP
24
A4
ENDCHAR
STARTCHAR ogonek
ENCODING 731
SWIDTH 567 0
DWIDTH 9 0
BBX 5 3 3 -2
BITMAP
2000
6140
2900
ENDCHAR
STARTCHAR tilde
ENCODING 732
SWIDTH 567 0
DWIDTH 9 0
BBX 5 2 3 9
BITMAP
6440
9A40
ENDCHAR
STARTCHAR hungarumlaut
ENCODING 733
SWIDTH 567 0
DWIDTH 9 0
BBX 5 2 3 9
BITMAP
2480
A740
ENDCHAR
STARTCHAR endash
ENCODING 8211
SWIDTH 353 0
DWIDTH 6 0
BBX 6 2 0 4
BITMAP
6A90
A940
ENDCHAR
STARTCHAR emdash
ENCODING 8212
SWIDTH 508 0
DWIDTH 8 0
BBX 8 2 0 4
BITMAP
6AA9
AAAA
ENDCHAR
STARTCHAR quoteleft
ENCODING 8216
SWIDTH 155 0
DWIDTH 2 0
BBX 3 4 0 7
BITMAP
14
30
78
20
ENDCHAR
STARTCHAR quoteright
ENCODING 8217
SWIDTH 154 0
DWIDTH 2 0
BBX 2 4 1 7
BITMAP
A0
E0
50
40
ENDCHAR
STARTCHAR quotesinglbase
ENCODING 8218
SWIDTH 188 0
DWIDTH 3 0
BBX 3 4 -1 -2
BITMAP
20
B4
30
50
ENDCHAR
STARTCHAR quotedblleft
ENCODING 8220
SWIDTH 289 0
DWIDTH 5 0
BBX 5 4 0 7
BITMAP
1440
3200
7B80
2240
ENDCHAR
STARTCHAR quotedblright
ENCODING 8221
SWIDTH 288 0
DWIDTH 5 0
BBX 4 4 1 7
BITMAP
A6
EB
56
44
ENDCHAR
STARTCHAR quotedblbase
ENCODING 8222
SWIDTH 323 0
DWIDTH 5 0
BBX 5 4 -1 -2
BITMAP
2240
BB40
3200
5500
ENDCHAR
STARTCHAR bullet
ENCODING 8226
SWIDTH 180 0
DWIDTH 3 0
BBX 3 4 0 3
BITMAP
10
B4
F4
F0
ENDCHAR
STARTCHAR ellipsis
ENCODING 8230
SWIDTH 614 0
DWIDTH 10 0
BBX 9 2 -1 -1
BITMAP
78E3C0
104100
ENDCHAR
STARTCHAR perthousand
ENCODING 8240
SWIDTH 851 0
DWIDTH 14 0
BBX 13 13 0 -1
BITMAP
05008000
2A824000
31860000
619C0000
63640000
2DA00000
01C40100
036A5E80
0A7264C0
1C9270C0
34937280
A07D2A00
40000400
ENDCHAR
STARTCHAR guilsinglleft
ENCODING 8249
SWIDTH 202 0
DWIDTH 3 0
BBX 4 6 -1 0
BITMAP
06
18
70
70
24
18
ENDCHAR
STARTCHAR guilsinglright
ENCODING 8250
SWIDTH 202 0
DWIDTH 3 0
BBX 4 6 -1 0
BITMAP
20
18
0D
0D
24
90
ENDCHAR
STARTCHAR fraction
ENCODING 8260
SWIDTH 600 0
DWIDTH 10 0
BBX 10 12 0 0
BITMAP
000050
0001C0
000340
000900
001800
003000
009000
018000
030000
090000
280000
740000
ENDCHAR
STARTCHAR Euro
ENCODING 8364
SWIDTH 334 0
DWIDTH 5 0
BBX 7 10 -1 1
BITMAP
0050
0198
0704
0900
2E90
2D40
6940
2400
1860
0680
ENDCHAR
STARTCHAR minus
ENCODING 8722
SWIDTH 353 0
DWIDTH 6 0
BBX 6 2 0 4
BITMAP
6A90
A940
ENDCHAR
STARTCHAR fi
ENCODING 64257
SWIDTH 549 0
DWIDTH 9 0
BBX 12 19 -2 -8
BITMAP
00B000
00B070
00A050
00D000
01C000
0181C0
025B80
079342
0E0709
0B0628
0EC3D0
1CA000
186000
246000
34A000
70D000
638000
7E0000
140000
ENDCHAR
STARTCHAR fl
ENCODING 64258
SWIDTH 516 0
DWIDTH 8 0
BBX 11 19 -2 -8
BITMAP
00B074
00B074
00A0B0
00D0A0
01C0D0
0181C0
025AC0
079280
0E0340
0B0700
0EC700
1CA100
186000
246000
34A000
70D000
638000
7E0000
140000
ENDCHAR
STARTCHAR .notdef
ENCODING -1
SWIDTH 280 0
DWIDTH 4 0
BBX 1 1 0 0
BITMAP
00
ENDCHAR
ENDFONT
